# Tiled2Unity generated file. Do not modify by hand.
# Wavefront file for 'Level_01_mesh_0001.obj'

# Vertices (Count = 816)
v -464 -448 0
v -496 -448 0
v -496 -416 0
v -464 -416 0
v -480 -448 0
v -512 -448 0
v -512 -416 0
v -480 -416 0
v -496 -448 0
v -528 -448 0
v -528 -416 0
v -496 -416 0
v -512 -448 0
v -544 -448 0
v -544 -416 0
v -512 -416 0
v -528 -448 0
v -560 -448 0
v -560 -416 0
v -528 -416 0
v -544 -448 0
v -576 -448 0
v -576 -416 0
v -544 -416 0
v -560 -448 0
v -592 -448 0
v -592 -416 0
v -560 -416 0
v -576 -448 0
v -608 -448 0
v -608 -416 0
v -576 -416 0
v -592 -448 0
v -624 -448 0
v -624 -416 0
v -592 -416 0
v -608 -448 0
v -640 -448 0
v -640 -416 0
v -608 -416 0
v -624 -448 0
v -656 -448 0
v -656 -416 0
v -624 -416 0
v -640 -448 0
v -672 -448 0
v -672 -416 0
v -640 -416 0
v -656 -448 0
v -688 -448 0
v -688 -416 0
v -656 -416 0
v -672 -448 0
v -704 -448 0
v -704 -416 0
v -672 -416 0
v -688 -448 0
v -720 -448 0
v -720 -416 0
v -688 -416 0
v -704 -448 0
v -736 -448 0
v -736 -416 0
v -704 -416 0
v -720 -448 0
v -752 -448 0
v -752 -416 0
v -720 -416 0
v -736 -448 0
v -768 -448 0
v -768 -416 0
v -736 -416 0
v -752 -448 0
v -784 -448 0
v -784 -416 0
v -752 -416 0
v -768 -448 0
v -800 -448 0
v -800 -416 0
v -768 -416 0
v -784 -448 0
v -816 -448 0
v -816 -416 0
v -784 -416 0
v -800 -448 0
v -832 -448 0
v -832 -416 0
v -800 -416 0
v -816 -448 0
v -848 -448 0
v -848 -416 0
v -816 -416 0
v -832 -448 0
v -864 -448 0
v -864 -416 0
v -832 -416 0
v -848 -448 0
v -880 -448 0
v -880 -416 0
v -848 -416 0
v -864 -448 0
v -896 -448 0
v -896 -416 0
v -864 -416 0
v -880 -448 0
v -912 -448 0
v -912 -416 0
v -880 -416 0
v -896 -448 0
v -928 -448 0
v -928 -416 0
v -896 -416 0
v -912 -448 0
v -944 -448 0
v -944 -416 0
v -912 -416 0
v -928 -448 0
v -960 -448 0
v -960 -416 0
v -928 -416 0
v -944 -448 0
v -976 -448 0
v -976 -416 0
v -944 -416 0
v -960 -448 0
v -992 -448 0
v -992 -416 0
v -960 -416 0
v -976 -448 0
v -1008 -448 0
v -1008 -416 0
v -976 -416 0
v -992 -448 0
v -1024 -448 0
v -1024 -416 0
v -992 -416 0
v -1008 -448 0
v -1040 -448 0
v -1040 -416 0
v -1008 -416 0
v -1024 -448 0
v -1056 -448 0
v -1056 -416 0
v -1024 -416 0
v -1040 -448 0
v -1072 -448 0
v -1072 -416 0
v -1040 -416 0
v -464 -464 0
v -496 -464 0
v -496 -432 0
v -464 -432 0
v -1040 -464 0
v -1072 -464 0
v -1072 -432 0
v -1040 -432 0
v -448 -480 0
v -480 -480 0
v -480 -448 0
v -448 -448 0
v -1040 -480 0
v -1072 -480 0
v -1072 -448 0
v -1040 -448 0
v -448 -496 0
v -480 -496 0
v -480 -464 0
v -448 -464 0
v -560 -496 0
v -592 -496 0
v -592 -464 0
v -560 -464 0
v -576 -496 0
v -608 -496 0
v -608 -464 0
v -576 -464 0
v -592 -496 0
v -624 -496 0
v -624 -464 0
v -592 -464 0
v -896 -496 0
v -928 -496 0
v -928 -464 0
v -896 -464 0
v -912 -496 0
v -944 -496 0
v -944 -464 0
v -912 -464 0
v -928 -496 0
v -960 -496 0
v -960 -464 0
v -928 -464 0
v -1040 -496 0
v -1072 -496 0
v -1072 -464 0
v -1040 -464 0
v -448 -512 0
v -480 -512 0
v -480 -480 0
v -448 -480 0
v -528 -512 0
v -560 -512 0
v -560 -480 0
v -528 -480 0
v -544 -512 0
v -576 -512 0
v -576 -480 0
v -544 -480 0
v -928 -512 0
v -960 -512 0
v -960 -480 0
v -928 -480 0
v -944 -512 0
v -976 -512 0
v -976 -480 0
v -944 -480 0
v -1040 -512 0
v -1072 -512 0
v -1072 -480 0
v -1040 -480 0
v -1056 -512 0
v -1088 -512 0
v -1088 -480 0
v -1056 -480 0
v -448 -528 0
v -480 -528 0
v -480 -496 0
v -448 -496 0
v -1056 -528 0
v -1088 -528 0
v -1088 -496 0
v -1056 -496 0
v -448 -544 0
v -480 -544 0
v -480 -512 0
v -448 -512 0
v -1056 -544 0
v -1088 -544 0
v -1088 -512 0
v -1056 -512 0
v -448 -560 0
v -480 -560 0
v -480 -528 0
v -448 -528 0
v -1056 -560 0
v -1088 -560 0
v -1088 -528 0
v -1056 -528 0
v -432 -576 0
v -464 -576 0
v -464 -544 0
v -432 -544 0
v -1056 -576 0
v -1088 -576 0
v -1088 -544 0
v -1056 -544 0
v -432 -592 0
v -464 -592 0
v -464 -560 0
v -432 -560 0
v -544 -592 0
v -576 -592 0
v -576 -560 0
v -544 -560 0
v -560 -592 0
v -592 -592 0
v -592 -560 0
v -560 -560 0
v -1056 -592 0
v -1088 -592 0
v -1088 -560 0
v -1056 -560 0
v -432 -608 0
v -464 -608 0
v -464 -576 0
v -432 -576 0
v -544 -608 0
v -576 -608 0
v -576 -576 0
v -544 -576 0
v -912 -608 0
v -944 -608 0
v -944 -576 0
v -912 -576 0
v -1056 -608 0
v -1088 -608 0
v -1088 -576 0
v -1056 -576 0
v -432 -624 0
v -464 -624 0
v -464 -592 0
v -432 -592 0
v -528 -624 0
v -560 -624 0
v -560 -592 0
v -528 -592 0
v -928 -624 0
v -960 -624 0
v -960 -592 0
v -928 -592 0
v -1056 -624 0
v -1088 -624 0
v -1088 -592 0
v -1056 -592 0
v -432 -640 0
v -464 -640 0
v -464 -608 0
v -432 -608 0
v -528 -640 0
v -560 -640 0
v -560 -608 0
v -528 -608 0
v -656 -640 0
v -688 -640 0
v -688 -608 0
v -656 -608 0
v -672 -640 0
v -704 -640 0
v -704 -608 0
v -672 -608 0
v -704 -640 0
v -736 -640 0
v -736 -608 0
v -704 -608 0
v -752 -640 0
v -784 -640 0
v -784 -608 0
v -752 -608 0
v -768 -640 0
v -800 -640 0
v -800 -608 0
v -768 -608 0
v -784 -640 0
v -816 -640 0
v -816 -608 0
v -784 -608 0
v -800 -640 0
v -832 -640 0
v -832 -608 0
v -800 -608 0
v -928 -640 0
v -960 -640 0
v -960 -608 0
v -928 -608 0
v -1056 -640 0
v -1088 -640 0
v -1088 -608 0
v -1056 -608 0
v -432 -656 0
v -464 -656 0
v -464 -624 0
v -432 -624 0
v -528 -656 0
v -560 -656 0
v -560 -624 0
v -528 -624 0
v -656 -656 0
v -688 -656 0
v -688 -624 0
v -656 -624 0
v -800 -656 0
v -832 -656 0
v -832 -624 0
v -800 -624 0
v -928 -656 0
v -960 -656 0
v -960 -624 0
v -928 -624 0
v -1056 -656 0
v -1088 -656 0
v -1088 -624 0
v -1056 -624 0
v -432 -672 0
v -464 -672 0
v -464 -640 0
v -432 -640 0
v -544 -672 0
v -576 -672 0
v -576 -640 0
v -544 -640 0
v -640 -672 0
v -672 -672 0
v -672 -640 0
v -640 -640 0
v -816 -672 0
v -848 -672 0
v -848 -640 0
v -816 -640 0
v -912 -672 0
v -944 -672 0
v -944 -640 0
v -912 -640 0
v -1056 -672 0
v -1088 -672 0
v -1088 -640 0
v -1056 -640 0
v -432 -688 0
v -464 -688 0
v -464 -656 0
v -432 -656 0
v -544 -688 0
v -576 -688 0
v -576 -656 0
v -544 -656 0
v -560 -688 0
v -592 -688 0
v -592 -656 0
v -560 -656 0
v -624 -688 0
v -656 -688 0
v -656 -656 0
v -624 -656 0
v -640 -688 0
v -672 -688 0
v -672 -656 0
v -640 -656 0
v -816 -688 0
v -848 -688 0
v -848 -656 0
v -816 -656 0
v -832 -688 0
v -864 -688 0
v -864 -656 0
v -832 -656 0
v -896 -688 0
v -928 -688 0
v -928 -656 0
v -896 -656 0
v -912 -688 0
v -944 -688 0
v -944 -656 0
v -912 -656 0
v -1056 -688 0
v -1088 -688 0
v -1088 -656 0
v -1056 -656 0
v -432 -704 0
v -464 -704 0
v -464 -672 0
v -432 -672 0
v -576 -704 0
v -608 -704 0
v -608 -672 0
v -576 -672 0
v -592 -704 0
v -624 -704 0
v -624 -672 0
v -592 -672 0
v -608 -704 0
v -640 -704 0
v -640 -672 0
v -608 -672 0
v -848 -704 0
v -880 -704 0
v -880 -672 0
v -848 -672 0
v -864 -704 0
v -896 -704 0
v -896 -672 0
v -864 -672 0
v -880 -704 0
v -912 -704 0
v -912 -672 0
v -880 -672 0
v -1056 -704 0
v -1088 -704 0
v -1088 -672 0
v -1056 -672 0
v -432 -720 0
v -464 -720 0
v -464 -688 0
v -432 -688 0
v -880 -720 0
v -912 -720 0
v -912 -688 0
v -880 -688 0
v -1056 -720 0
v -1088 -720 0
v -1088 -688 0
v -1056 -688 0
v -432 -736 0
v -464 -736 0
v -464 -704 0
v -432 -704 0
v -880 -736 0
v -912 -736 0
v -912 -704 0
v -880 -704 0
v -1056 -736 0
v -1088 -736 0
v -1088 -704 0
v -1056 -704 0
v -432 -752 0
v -464 -752 0
v -464 -720 0
v -432 -720 0
v -880 -752 0
v -912 -752 0
v -912 -720 0
v -880 -720 0
v -1056 -752 0
v -1088 -752 0
v -1088 -720 0
v -1056 -720 0
v -432 -768 0
v -464 -768 0
v -464 -736 0
v -432 -736 0
v -880 -768 0
v -912 -768 0
v -912 -736 0
v -880 -736 0
v -1056 -768 0
v -1088 -768 0
v -1088 -736 0
v -1056 -736 0
v -432 -784 0
v -464 -784 0
v -464 -752 0
v -432 -752 0
v -880 -784 0
v -912 -784 0
v -912 -752 0
v -880 -752 0
v -1056 -784 0
v -1088 -784 0
v -1088 -752 0
v -1056 -752 0
v -432 -800 0
v -464 -800 0
v -464 -768 0
v -432 -768 0
v -880 -800 0
v -912 -800 0
v -912 -768 0
v -880 -768 0
v -1056 -800 0
v -1088 -800 0
v -1088 -768 0
v -1056 -768 0
v -432 -816 0
v -464 -816 0
v -464 -784 0
v -432 -784 0
v -880 -816 0
v -912 -816 0
v -912 -784 0
v -880 -784 0
v -1056 -816 0
v -1088 -816 0
v -1088 -784 0
v -1056 -784 0
v -432 -832 0
v -464 -832 0
v -464 -800 0
v -432 -800 0
v -448 -832 0
v -480 -832 0
v -480 -800 0
v -448 -800 0
v -880 -832 0
v -912 -832 0
v -912 -800 0
v -880 -800 0
v -1056 -832 0
v -1088 -832 0
v -1088 -800 0
v -1056 -800 0
v -448 -848 0
v -480 -848 0
v -480 -816 0
v -448 -816 0
v -464 -848 0
v -496 -848 0
v -496 -816 0
v -464 -816 0
v -880 -848 0
v -912 -848 0
v -912 -816 0
v -880 -816 0
v -1056 -848 0
v -1088 -848 0
v -1088 -816 0
v -1056 -816 0
v -448 -864 0
v -480 -864 0
v -480 -832 0
v -448 -832 0
v -464 -864 0
v -496 -864 0
v -496 -832 0
v -464 -832 0
v -496 -864 0
v -528 -864 0
v -528 -832 0
v -496 -832 0
v -880 -864 0
v -912 -864 0
v -912 -832 0
v -880 -832 0
v -1024 -864 0
v -1056 -864 0
v -1056 -832 0
v -1024 -832 0
v -1056 -864 0
v -1088 -864 0
v -1088 -832 0
v -1056 -832 0
v -432 -880 0
v -464 -880 0
v -464 -848 0
v -432 -848 0
v -448 -880 0
v -480 -880 0
v -480 -848 0
v -448 -848 0
v -464 -880 0
v -496 -880 0
v -496 -848 0
v -464 -848 0
v -480 -880 0
v -512 -880 0
v -512 -848 0
v -480 -848 0
v -496 -880 0
v -528 -880 0
v -528 -848 0
v -496 -848 0
v -528 -880 0
v -560 -880 0
v -560 -848 0
v -528 -848 0
v -688 -880 0
v -720 -880 0
v -720 -848 0
v -688 -848 0
v -704 -880 0
v -736 -880 0
v -736 -848 0
v -704 -848 0
v -720 -880 0
v -752 -880 0
v -752 -848 0
v -720 -848 0
v -736 -880 0
v -768 -880 0
v -768 -848 0
v -736 -848 0
v -752 -880 0
v -784 -880 0
v -784 -848 0
v -752 -848 0
v -768 -880 0
v -800 -880 0
v -800 -848 0
v -768 -848 0
v -880 -880 0
v -912 -880 0
v -912 -848 0
v -880 -848 0
v -944 -880 0
v -976 -880 0
v -976 -848 0
v -944 -848 0
v -960 -880 0
v -992 -880 0
v -992 -848 0
v -960 -848 0
v -976 -880 0
v -1008 -880 0
v -1008 -848 0
v -976 -848 0
v -992 -880 0
v -1024 -880 0
v -1024 -848 0
v -992 -848 0
v -1008 -880 0
v -1040 -880 0
v -1040 -848 0
v -1008 -848 0
v -1024 -880 0
v -1056 -880 0
v -1056 -848 0
v -1024 -848 0
v -1040 -880 0
v -1072 -880 0
v -1072 -848 0
v -1040 -848 0
v -1056 -880 0
v -1088 -880 0
v -1088 -848 0
v -1056 -848 0
v -432 -896 0
v -464 -896 0
v -464 -864 0
v -432 -864 0
v -528 -896 0
v -560 -896 0
v -560 -864 0
v -528 -864 0
v -656 -896 0
v -688 -896 0
v -688 -864 0
v -656 -864 0
v -672 -896 0
v -704 -896 0
v -704 -864 0
v -672 -864 0
v -768 -896 0
v -800 -896 0
v -800 -864 0
v -768 -864 0
v -784 -896 0
v -816 -896 0
v -816 -864 0
v -784 -864 0
v -880 -896 0
v -912 -896 0
v -912 -864 0
v -880 -864 0
v -912 -896 0
v -944 -896 0
v -944 -864 0
v -912 -864 0
v -928 -896 0
v -960 -896 0
v -960 -864 0
v -928 -864 0
v -528 -912 0
v -560 -912 0
v -560 -880 0
v -528 -880 0
v -624 -912 0
v -656 -912 0
v -656 -880 0
v -624 -880 0
v -640 -912 0
v -672 -912 0
v -672 -880 0
v -640 -880 0
v -656 -912 0
v -688 -912 0
v -688 -880 0
v -656 -880 0
v -784 -912 0
v -816 -912 0
v -816 -880 0
v -784 -880 0
v -800 -912 0
v -832 -912 0
v -832 -880 0
v -800 -880 0
v -816 -912 0
v -848 -912 0
v -848 -880 0
v -816 -880 0
v -880 -912 0
v -912 -912 0
v -912 -880 0
v -880 -880 0
v -896 -912 0
v -928 -912 0
v -928 -880 0
v -896 -880 0
v -912 -912 0
v -944 -912 0
v -944 -880 0
v -912 -880 0
v -528 -928 0
v -560 -928 0
v -560 -896 0
v -528 -896 0
v -544 -928 0
v -576 -928 0
v -576 -896 0
v -544 -896 0
v -560 -928 0
v -592 -928 0
v -592 -896 0
v -560 -896 0
v -576 -928 0
v -608 -928 0
v -608 -896 0
v -576 -896 0
v -592 -928 0
v -624 -928 0
v -624 -896 0
v -592 -896 0
v -608 -928 0
v -640 -928 0
v -640 -896 0
v -608 -896 0
v -624 -928 0
v -656 -928 0
v -656 -896 0
v -624 -896 0
v -816 -928 0
v -848 -928 0
v -848 -896 0
v -816 -896 0
v -832 -928 0
v -864 -928 0
v -864 -896 0
v -832 -896 0
v -848 -928 0
v -880 -928 0
v -880 -896 0
v -848 -896 0
v -864 -928 0
v -896 -928 0
v -896 -896 0
v -864 -896 0
v -880 -928 0
v -912 -928 0
v -912 -896 0
v -880 -896 0

# Texture cooridinates (Count = 43)
vt 0 0.04347826
vt 0.08 0.04347826
vt 0.08 0.1304348
vt 0 0.1304348
vt 0.32 0.6521739
vt 0.4 0.6521739
vt 0.4 0.7391304
vt 0.32 0.7391304
vt 0.48 0.6521739
vt 0.48 0.7391304
vt 0.08 0.9130435
vt 0.16 0.9130435
vt 0.16 1
vt 0.08 1
vt 0.24 0.8260869
vt 0.32 0.8260869
vt 0.32 0.9130435
vt 0.24 0.9130435
vt 0.4 0.8260869
vt 0.4 0.9130435
vt 0.4 1
vt 0.32 1
vt 0.48 0.9130435
vt 0.48 1
vt 0.24 0.4782609
vt 0.32 0.4782609
vt 0.32 0.5652174
vt 0.24 0.5652174
vt 0.88 0.9130435
vt 0.96 0.9130435
vt 0.96 1
vt 0.88 1
vt 0 0.8260869
vt 0.08 0.8260869
vt 0 0.9130435
vt 0.16 0.04347826
vt 0.16 0.1304348
vt 0.24 0.04347826
vt 0.24 0.1304348
vt 0.72 0.6521739
vt 0.8 0.6521739
vt 0.8 0.7391304
vt 0.72 0.7391304

# Normal
vn 0 0 -1

# Mesh description
g Level_01_mesh_0001

# Faces
f 1/1/1 2/2/1 3/3/1 4/4/1
f 5/1/1 6/2/1 7/3/1 8/4/1
f 9/1/1 10/2/1 11/3/1 12/4/1
f 13/1/1 14/2/1 15/3/1 16/4/1
f 17/1/1 18/2/1 19/3/1 20/4/1
f 21/1/1 22/2/1 23/3/1 24/4/1
f 25/1/1 26/2/1 27/3/1 28/4/1
f 29/1/1 30/2/1 31/3/1 32/4/1
f 33/1/1 34/2/1 35/3/1 36/4/1
f 37/1/1 38/2/1 39/3/1 40/4/1
f 41/1/1 42/2/1 43/3/1 44/4/1
f 45/1/1 46/2/1 47/3/1 48/4/1
f 49/1/1 50/2/1 51/3/1 52/4/1
f 53/1/1 54/2/1 55/3/1 56/4/1
f 57/1/1 58/2/1 59/3/1 60/4/1
f 61/1/1 62/2/1 63/3/1 64/4/1
f 65/1/1 66/2/1 67/3/1 68/4/1
f 69/1/1 70/2/1 71/3/1 72/4/1
f 73/1/1 74/2/1 75/3/1 76/4/1
f 77/1/1 78/2/1 79/3/1 80/4/1
f 81/1/1 82/2/1 83/3/1 84/4/1
f 85/1/1 86/2/1 87/3/1 88/4/1
f 89/1/1 90/2/1 91/3/1 92/4/1
f 93/1/1 94/2/1 95/3/1 96/4/1
f 97/1/1 98/2/1 99/3/1 100/4/1
f 101/1/1 102/2/1 103/3/1 104/4/1
f 105/1/1 106/2/1 107/3/1 108/4/1
f 109/1/1 110/2/1 111/3/1 112/4/1
f 113/1/1 114/2/1 115/3/1 116/4/1
f 117/1/1 118/2/1 119/3/1 120/4/1
f 121/1/1 122/2/1 123/3/1 124/4/1
f 125/1/1 126/2/1 127/3/1 128/4/1
f 129/1/1 130/2/1 131/3/1 132/4/1
f 133/1/1 134/2/1 135/3/1 136/4/1
f 137/1/1 138/2/1 139/3/1 140/4/1
f 141/1/1 142/2/1 143/3/1 144/4/1
f 145/1/1 146/2/1 147/3/1 148/4/1
f 149/1/1 150/2/1 151/3/1 152/4/1
f 153/1/1 154/2/1 155/3/1 156/4/1
f 157/1/1 158/2/1 159/3/1 160/4/1
f 161/1/1 162/2/1 163/3/1 164/4/1
f 165/1/1 166/2/1 167/3/1 168/4/1
f 169/5/1 170/6/1 171/7/1 172/8/1
f 173/5/1 174/6/1 175/7/1 176/8/1
f 177/5/1 178/6/1 179/7/1 180/8/1
f 181/6/1 182/9/1 183/10/1 184/7/1
f 185/6/1 186/9/1 187/10/1 188/7/1
f 189/6/1 190/9/1 191/10/1 192/7/1
f 193/1/1 194/2/1 195/3/1 196/4/1
f 197/1/1 198/2/1 199/3/1 200/4/1
f 201/5/1 202/6/1 203/7/1 204/8/1
f 205/5/1 206/6/1 207/7/1 208/8/1
f 209/6/1 210/9/1 211/10/1 212/7/1
f 213/6/1 214/9/1 215/10/1 216/7/1
f 217/1/1 218/2/1 219/3/1 220/4/1
f 221/1/1 222/2/1 223/3/1 224/4/1
f 225/1/1 226/2/1 227/3/1 228/4/1
f 229/1/1 230/2/1 231/3/1 232/4/1
f 233/1/1 234/2/1 235/3/1 236/4/1
f 237/1/1 238/2/1 239/3/1 240/4/1
f 241/1/1 242/2/1 243/3/1 244/4/1
f 245/1/1 246/2/1 247/3/1 248/4/1
f 249/1/1 250/2/1 251/3/1 252/4/1
f 253/1/1 254/2/1 255/3/1 256/4/1
f 257/1/1 258/2/1 259/3/1 260/4/1
f 261/11/1 262/12/1 263/13/1 264/14/1
f 265/11/1 266/12/1 267/13/1 268/14/1
f 269/1/1 270/2/1 271/3/1 272/4/1
f 273/1/1 274/2/1 275/3/1 276/4/1
f 277/11/1 278/12/1 279/13/1 280/14/1
f 281/11/1 282/12/1 283/13/1 284/14/1
f 285/1/1 286/2/1 287/3/1 288/4/1
f 289/1/1 290/2/1 291/3/1 292/4/1
f 293/11/1 294/12/1 295/13/1 296/14/1
f 297/11/1 298/12/1 299/13/1 300/14/1
f 301/1/1 302/2/1 303/3/1 304/4/1
f 305/1/1 306/2/1 307/3/1 308/4/1
f 309/11/1 310/12/1 311/13/1 312/14/1
f 313/11/1 314/12/1 315/13/1 316/14/1
f 317/15/1 318/16/1 319/17/1 320/18/1
f 321/16/1 322/19/1 323/20/1 324/17/1
f 325/17/1 326/20/1 327/21/1 328/22/1
f 329/17/1 330/20/1 331/21/1 332/22/1
f 333/20/1 334/23/1 335/24/1 336/21/1
f 337/11/1 338/12/1 339/13/1 340/14/1
f 341/11/1 342/12/1 343/13/1 344/14/1
f 345/1/1 346/2/1 347/3/1 348/4/1
f 349/1/1 350/2/1 351/3/1 352/4/1
f 353/11/1 354/12/1 355/13/1 356/14/1
f 357/11/1 358/12/1 359/13/1 360/14/1
f 361/11/1 362/12/1 363/13/1 364/14/1
f 365/11/1 366/12/1 367/13/1 368/14/1
f 369/1/1 370/2/1 371/3/1 372/4/1
f 373/1/1 374/2/1 375/3/1 376/4/1
f 377/11/1 378/12/1 379/13/1 380/14/1
f 381/11/1 382/12/1 383/13/1 384/14/1
f 385/11/1 386/12/1 387/13/1 388/14/1
f 389/11/1 390/12/1 391/13/1 392/14/1
f 393/1/1 394/2/1 395/3/1 396/4/1
f 397/1/1 398/2/1 399/3/1 400/4/1
f 401/11/1 402/12/1 403/13/1 404/14/1
f 405/11/1 406/12/1 407/13/1 408/14/1
f 409/11/1 410/12/1 411/13/1 412/14/1
f 413/11/1 414/12/1 415/13/1 416/14/1
f 417/11/1 418/12/1 419/13/1 420/14/1
f 421/11/1 422/12/1 423/13/1 424/14/1
f 425/11/1 426/12/1 427/13/1 428/14/1
f 429/11/1 430/12/1 431/13/1 432/14/1
f 433/1/1 434/2/1 435/3/1 436/4/1
f 437/1/1 438/2/1 439/3/1 440/4/1
f 441/11/1 442/12/1 443/13/1 444/14/1
f 445/11/1 446/12/1 447/13/1 448/14/1
f 449/11/1 450/12/1 451/13/1 452/14/1
f 453/11/1 454/12/1 455/13/1 456/14/1
f 457/11/1 458/12/1 459/13/1 460/14/1
f 461/25/1 462/26/1 463/27/1 464/28/1
f 465/1/1 466/2/1 467/3/1 468/4/1
f 469/1/1 470/2/1 471/3/1 472/4/1
f 473/25/1 474/26/1 475/27/1 476/28/1
f 477/1/1 478/2/1 479/3/1 480/4/1
f 481/1/1 482/2/1 483/3/1 484/4/1
f 485/25/1 486/26/1 487/27/1 488/28/1
f 489/1/1 490/2/1 491/3/1 492/4/1
f 493/1/1 494/2/1 495/3/1 496/4/1
f 497/25/1 498/26/1 499/27/1 500/28/1
f 501/1/1 502/2/1 503/3/1 504/4/1
f 505/1/1 506/2/1 507/3/1 508/4/1
f 509/25/1 510/26/1 511/27/1 512/28/1
f 513/1/1 514/2/1 515/3/1 516/4/1
f 517/1/1 518/2/1 519/3/1 520/4/1
f 521/25/1 522/26/1 523/27/1 524/28/1
f 525/1/1 526/2/1 527/3/1 528/4/1
f 529/1/1 530/2/1 531/3/1 532/4/1
f 533/25/1 534/26/1 535/27/1 536/28/1
f 537/1/1 538/2/1 539/3/1 540/4/1
f 541/1/1 542/2/1 543/3/1 544/4/1
f 545/25/1 546/26/1 547/27/1 548/28/1
f 549/1/1 550/2/1 551/3/1 552/4/1
f 553/1/1 554/2/1 555/3/1 556/4/1
f 557/1/1 558/2/1 559/3/1 560/4/1
f 561/25/1 562/26/1 563/27/1 564/28/1
f 565/1/1 566/2/1 567/3/1 568/4/1
f 569/1/1 570/2/1 571/3/1 572/4/1
f 573/29/1 574/30/1 575/31/1 576/32/1
f 577/25/1 578/26/1 579/27/1 580/28/1
f 581/1/1 582/2/1 583/3/1 584/4/1
f 585/1/1 586/2/1 587/3/1 588/4/1
f 589/33/1 590/34/1 591/11/1 592/35/1
f 593/29/1 594/30/1 595/31/1 596/32/1
f 597/25/1 598/26/1 599/27/1 600/28/1
f 601/2/1 602/36/1 603/37/1 604/3/1
f 605/36/1 606/38/1 607/39/1 608/37/1
f 609/1/1 610/2/1 611/3/1 612/4/1
f 613/1/1 614/2/1 615/3/1 616/4/1
f 617/33/1 618/34/1 619/11/1 620/35/1
f 621/33/1 622/34/1 623/11/1 624/35/1
f 625/33/1 626/34/1 627/11/1 628/35/1
f 629/29/1 630/30/1 631/31/1 632/32/1
f 633/11/1 634/12/1 635/13/1 636/14/1
f 637/11/1 638/12/1 639/13/1 640/14/1
f 641/11/1 642/12/1 643/13/1 644/14/1
f 645/11/1 646/12/1 647/13/1 648/14/1
f 649/11/1 650/12/1 651/13/1 652/14/1
f 653/11/1 654/12/1 655/13/1 656/14/1
f 657/25/1 658/26/1 659/27/1 660/28/1
f 661/11/1 662/12/1 663/13/1 664/14/1
f 665/11/1 666/12/1 667/13/1 668/14/1
f 669/11/1 670/12/1 671/13/1 672/14/1
f 673/11/1 674/12/1 675/13/1 676/14/1
f 677/11/1 678/12/1 679/13/1 680/14/1
f 681/11/1 682/12/1 683/13/1 684/14/1
f 685/11/1 686/12/1 687/13/1 688/14/1
f 689/1/1 690/2/1 691/3/1 692/4/1
f 693/1/1 694/2/1 695/3/1 696/4/1
f 697/40/1 698/41/1 699/42/1 700/43/1
f 701/11/1 702/12/1 703/13/1 704/14/1
f 705/11/1 706/12/1 707/13/1 708/14/1
f 709/11/1 710/12/1 711/13/1 712/14/1
f 713/11/1 714/12/1 715/13/1 716/14/1
f 717/25/1 718/26/1 719/27/1 720/28/1
f 721/11/1 722/12/1 723/13/1 724/14/1
f 725/11/1 726/12/1 727/13/1 728/14/1
f 729/40/1 730/41/1 731/42/1 732/43/1
f 733/11/1 734/12/1 735/13/1 736/14/1
f 737/11/1 738/12/1 739/13/1 740/14/1
f 741/11/1 742/12/1 743/13/1 744/14/1
f 745/11/1 746/12/1 747/13/1 748/14/1
f 749/11/1 750/12/1 751/13/1 752/14/1
f 753/11/1 754/12/1 755/13/1 756/14/1
f 757/25/1 758/26/1 759/27/1 760/28/1
f 761/11/1 762/12/1 763/13/1 764/14/1
f 765/11/1 766/12/1 767/13/1 768/14/1
f 769/40/1 770/41/1 771/42/1 772/43/1
f 773/11/1 774/12/1 775/13/1 776/14/1
f 777/11/1 778/12/1 779/13/1 780/14/1
f 781/11/1 782/12/1 783/13/1 784/14/1
f 785/11/1 786/12/1 787/13/1 788/14/1
f 789/11/1 790/12/1 791/13/1 792/14/1
f 793/11/1 794/12/1 795/13/1 796/14/1
f 797/11/1 798/12/1 799/13/1 800/14/1
f 801/11/1 802/12/1 803/13/1 804/14/1
f 805/11/1 806/12/1 807/13/1 808/14/1
f 809/11/1 810/12/1 811/13/1 812/14/1
f 813/11/1 814/12/1 815/13/1 816/14/1

